<?xml version="1.0" encoding="utf-8"?>
<!-- Generator: Adobe Illustrator 19.0.0, SVG Export Plug-In . SVG Version: 6.00 Build 0)  -->
<svg version="1.1" id="Layer_1" xmlns="http://www.w3.org/2000/svg" xmlns:xlink="http://www.w3.org/1999/xlink" x="0px" y="0px"
	 viewBox="-223 225 64 64" style="enable-background:new -223 225 64 64;" xml:space="preserve">
<style type="text/css">
	.st0{fill:#FFFFFF;}
</style>
<g>
	<path d="M-191,286.7c-16.4,0-29.7-13.3-29.7-29.7s13.3-29.7,29.7-29.7s29.7,13.3,29.7,29.7S-174.6,286.7-191,286.7z"/>
	<path class="st0" d="M-191,228.8c15.5,0,28.2,12.6,28.2,28.2s-12.6,28.2-28.2,28.2s-28.2-12.6-28.2-28.2S-206.5,228.8-191,228.8
		 M-191,225.8c-17.2,0-31.2,14-31.2,31.2s14,31.2,31.2,31.2s31.2-14,31.2-31.2S-173.8,225.8-191,225.8L-191,225.8z"/>
</g>
<path class="st0" d="M-203.8,272.1c0,0.9,0.1,2.3,1.3,2.4c9.1,0.6,29.4-15.1,29.4-17.5c0-2.3-20.3-18.1-29.4-17.5
	c-1.2,0.1-1.2,1.5-1.3,2.4h0L-203.8,272.1L-203.8,272.1z"/>
</svg>
